<svg id="visual" viewBox="0 0 900 600" width="900" height="600" xmlns="http://www.w3.org/2000/svg" xmlns:xlink="http://www.w3.org/1999/xlink" version="1.1"><g transform="translate(432.8147893195637 300.3921071649357)"><path d="M91.1 -156.6C123.9 -138.9 160.2 -126.2 194 -100.9C227.7 -75.7 258.9 -37.8 263.9 2.9C269 43.7 247.9 87.3 217.9 119.1C187.9 150.8 149 170.7 111.1 194C73.3 217.4 36.7 244.2 5.8 234.1C-25 224 -50 176.9 -78 147.9C-106 118.9 -137 108 -166.8 86.3C-196.7 64.7 -225.3 32.3 -229.7 -2.5C-234 -37.3 -214 -74.7 -196.7 -118C-179.3 -161.3 -164.7 -210.5 -132.3 -228.5C-100 -246.5 -50 -233.3 -10.4 -215.2C29.2 -197.2 58.3 -174.4 91.1 -156.6" fill="#a3a3a3"></path></g></svg>